<svg xmlns:rdf="http://www.w3.org/1999/02/22-rdf-syntax-ns#" xmlns="http://www.w3.org/2000/svg" xmlns:cc="http://creativecommons.org/ns#" xmlns:dc="http://purl.org/dc/elements/1.1/" height="100%" viewBox="0 0 32 32" width="100%" version="1.1">
<g transform="translate(.02811 -2.178)">
<path fill-rule="evenodd" transform="translate(-.02811 2.178)" d="m16.06 1.824a2 2 0 0 0 -1.076 .2735l-14 8.232a2 2 0 0 0 -.986 1.725v16a2 2 0 0 0 2 2h9.014a2 2 0 0 0 2 -2v-3.561c1.462-.748 2.486-2.257 2.486-3.994 0-2.462-2.038-4.5-4.5-4.5s-4.5 2.038-4.5 4.5c0 1.748 1.037 3.265 2.514 4.008v1.547h-5.014v-12.86l12-7.056 12 7.056v12.95l-4.986-.07v-1.588c1.462-.748 2.486-2.257 2.486-3.994 0-2.462-2.038-4.5-4.5-4.5s-4.5 2.038-4.5 4.5c0 1.748 1.037 3.265 2.514 4.008v3.547a2 2 0 0 0 1.972 2l8.985.125a2 2 0 0 0 2.029 -2v-16.12a2 2 0 0 0 -.986 -1.725l-14-8.232a2 2 0 0 0 -.952 -.2735zm-5.062 18.06c.361 0 .611.25.611.611s-.25.613-.611.613-.613-.252-.613-.613.252-.611.613-.611zm10 0c.361 0 .611.25.611.611s-.25.613-.611.613-.613-.252-.613-.613.252-.611.613-.611z"/>
</g>
</svg>